# xmcd
#
# Track frame offsets: 
#        150
#        21942
#        44485
#        67892
#        84775
#        103960
#        121402
#        139587
#        158427
#        172542
#
# Disc length: 2578 seconds
#
# Revision: 5
# Processed by: cddbd v1.5.2PL0 Copyright (c) Steve Scherf et al.
# Submitted via: ExactAudioCopyFreeDBPlugin 1.0
#
DISCID=700a100a
DTITLE=Various Artist - Today's Hottest Country Dance Mixes
DYEAR=1996
DGENRE=Country
TTITLE0=Mark Chestnut - Bubba Shot The Jukebox
TTITLE1=David Lee Murphy - Just Once
TTITLE2=Rhett Atkins - I Break For Brunettes
TTITLE3=Reba McEntire - You Keep Me hangin' On
TTITLE4=Tracy Byrd - Watermelon Crawl
TTITLE5=Wynonna - One Else On Earth
TTITLE6=Marty Stuart - If I ain't Got You
TTITLE7=Tracy Byrd - Walkin'  To Jerusalem
TTITLE8=George Jones - High-Tech Redneck
TTITLE9=Frazier River - Tangled Up In Texas
EXTD=YEAR: 1996
EXTT0=
EXTT1=
EXTT2=
EXTT3=
EXTT4=
EXTT5=
EXTT6=
EXTT7=
EXTT8=
EXTT9=
PLAYORDER=
